<svg width="32.000000" height="32.000000" viewBox="0 0 32 32" fill="none" xmlns="http://www.w3.org/2000/svg" xmlns:xlink="http://www.w3.org/1999/xlink">
	<desc>
			Created with Pixso.
	</desc>
	<defs>
		<filter id="filter_1_7680_dd" x="0.000000" y="0.000000" width="32.000000" height="32.000000" filterUnits="userSpaceOnUse" color-interpolation-filters="sRGB">
			<feFlood flood-opacity="0" result="BackgroundImageFix"/>
			<feColorMatrix in="SourceAlpha" type="matrix" values="0 0 0 0 0 0 0 0 0 0 0 0 0 0 0 0 0 0 127 0" result="hardAlpha"/>
			<feOffset dx="0" dy="4"/>
			<feGaussianBlur stdDeviation="1.33333"/>
			<feComposite in2="hardAlpha" operator="out" k2="-1" k3="1"/>
			<feColorMatrix type="matrix" values="0 0 0 0 0 0 0 0 0 0 0 0 0 0 0 0 0 0 0.25 0"/>
			<feBlend mode="normal" in2="BackgroundImageFix" result="effect_dropShadow_1"/>
			<feBlend mode="normal" in="SourceGraphic" in2="effect_dropShadow_1" result="shape"/>
		</filter>
		<clipPath id="clip1_7680">
			<rect id="Instagram / Negative" width="24.000000" height="24.000000" transform="translate(4.000000 0.000000)" fill="white" fill-opacity="0"/>
		</clipPath>
	</defs>
	<g filter="url(#filter_1_7680_dd)">
		<rect id="Instagram / Negative" width="24.000000" height="24.000000" transform="translate(4.000000 0.000000)" fill="#FFFFFF" fill-opacity="0"/>
		<g clip-path="url(#clip1_7680)">
			<path id="Vector" d="M16 2.16089C19.2063 2.16089 19.5859 2.17505 20.8469 2.2312C22.0188 2.28271 22.6516 2.47974 23.0734 2.6438C23.6313 2.85938 24.0344 3.12183 24.4516 3.53906C24.8734 3.96094 25.1313 4.35938 25.3469 4.91724C25.5109 5.33911 25.7078 5.97656 25.7594 7.1438C25.8156 8.40942 25.8297 8.78906 25.8297 11.9907C25.8297 15.1968 25.8156 15.5767 25.7594 16.8374C25.7078 18.0093 25.5109 18.6421 25.3469 19.064C25.1313 19.6218 24.8687 20.0249 24.4516 20.4421C24.0297 20.864 23.6313 21.1218 23.0734 21.3374C22.6516 21.5015 22.0141 21.6985 20.8469 21.75C19.5813 21.8062 19.2016 21.8203 16 21.8203C12.7937 21.8203 12.4141 21.8062 11.1531 21.75C9.98125 21.6985 9.34843 21.5015 8.92656 21.3374C8.36874 21.1218 7.96562 20.8594 7.54843 20.4421C7.12656 20.0203 6.86874 19.6218 6.65312 19.064C6.48906 18.6421 6.29219 18.0046 6.24063 16.8374C6.18437 15.5718 6.17032 15.1921 6.17032 11.9907C6.17032 8.78442 6.18437 8.40479 6.24063 7.1438C6.29219 5.97192 6.48906 5.33911 6.65312 4.91724C6.86874 4.35938 7.13126 3.9563 7.54843 3.53906C7.97031 3.11719 8.36874 2.85938 8.92656 2.6438C9.34843 2.47974 9.98593 2.28271 11.1531 2.2312C12.4141 2.17505 12.7937 2.16089 16 2.16089ZM16 0C12.7422 0 12.3344 0.0141602 11.0547 0.0703125C9.77969 0.126465 8.90312 0.332764 8.14375 0.628174C7.35156 0.9375 6.68124 1.34521 6.01562 2.01562C5.34531 2.68115 4.9375 3.35156 4.62813 4.13916C4.33281 4.90308 4.12656 5.7749 4.07031 7.05005C4.01407 8.33447 4 8.74219 4 12C4 15.2578 4.01407 15.6655 4.07031 16.9453C4.12656 18.2202 4.33281 19.0969 4.62813 19.8562C4.9375 20.6484 5.34531 21.3188 6.01562 21.9844C6.68124 22.6499 7.35156 23.0625 8.13907 23.3672C8.90312 23.6626 9.77499 23.8687 11.05 23.925C12.3297 23.9812 12.7375 23.9954 15.9953 23.9954C19.2531 23.9954 19.6609 23.9812 20.9406 23.925C22.2156 23.8687 23.0922 23.6626 23.8516 23.3672C24.6391 23.0625 25.3094 22.6499 25.975 21.9844C26.6406 21.3188 27.0531 20.6484 27.3578 19.8608C27.6531 19.0969 27.8594 18.2251 27.9156 16.95C27.9719 15.6704 27.9859 15.2625 27.9859 12.0046C27.9859 8.74683 27.9719 8.33911 27.9156 7.05933C27.8594 5.78442 27.6531 4.90771 27.3578 4.14844C27.0625 3.35156 26.6547 2.68115 25.9844 2.01562C25.3188 1.3501 24.6484 0.9375 23.8609 0.632812C23.0969 0.337402 22.225 0.131348 20.95 0.0749512C19.6656 0.0141602 19.2578 0 16 0Z" fill="#C1AB81" fill-opacity="1.000000" fill-rule="nonzero"/>
			<path id="Vector" d="M16 5.83594C12.5969 5.83594 9.83594 8.59692 9.83594 12C9.83594 15.4031 12.5969 18.1641 16 18.1641C19.4031 18.1641 22.1641 15.4031 22.1641 12C22.1641 8.59692 19.4031 5.83594 16 5.83594ZM16 15.9985C13.7922 15.9985 12.0016 14.2078 12.0016 12C12.0016 9.79224 13.7922 8.00146 16 8.00146C18.2078 8.00146 19.9984 9.79224 19.9984 12C19.9984 14.2078 18.2078 15.9985 16 15.9985Z" fill="#C1AB81" fill-opacity="1.000000" fill-rule="nonzero"/>
			<path id="Vector" d="M23.8469 5.59229C23.8469 6.38916 23.2 7.03149 22.4078 7.03149C21.6109 7.03149 20.9688 6.38452 20.9688 5.59229C20.9688 4.79541 21.6156 4.15332 22.4078 4.15332C23.2 4.15332 23.8469 4.80029 23.8469 5.59229Z" fill="#C1AB81" fill-opacity="1.000000" fill-rule="nonzero"/>
		</g>
	</g>
</svg>
