<svg width="24.000000" height="24.000000" viewBox="0 0 24 24" fill="none" xmlns="http://www.w3.org/2000/svg" xmlns:xlink="http://www.w3.org/1999/xlink">
	<desc>
			Created with Pixso.
	</desc>
	<defs>
		<clipPath id="clip1_7679">
			<rect id="Twitter / Negative" width="24.000000" height="24.000000" fill="white" fill-opacity="0"/>
		</clipPath>
	</defs>
	<rect id="Twitter / Negative" width="24.000000" height="24.000000" fill="#FFFFFF" fill-opacity="0"/>
	<g clip-path="url(#clip1_7679)">
		<path id="Vector" d="M7.55016 21.7498C16.6045 21.7498 21.5583 14.2463 21.5583 7.7417C21.5583 7.53076 21.5536 7.31494 21.5442 7.104C22.5079 6.40723 23.3395 5.54395 24 4.55518C23.1025 4.95435 22.1496 5.21509 21.1739 5.32861C22.2013 4.71265 22.9705 3.74512 23.3391 2.60547C22.3726 3.17822 21.3156 3.58228 20.2134 3.80029C19.4708 3.01123 18.489 2.48877 17.4197 2.31372C16.3504 2.13867 15.2532 2.3208 14.2977 2.83179C13.3423 3.34302 12.5818 4.15454 12.1339 5.14111C11.6859 6.12769 11.5754 7.23438 11.8195 8.29004C9.8625 8.19189 7.94794 7.68335 6.19998 6.79785C4.45203 5.91235 2.90969 4.66919 1.67297 3.14917C1.0444 4.23291 0.852058 5.51538 1.13503 6.73584C1.41801 7.9563 2.15506 9.02319 3.1964 9.71973C2.41463 9.69482 1.64998 9.48438 0.965622 9.10571L0.965622 9.1665C0.964928 10.304 1.3581 11.4062 2.07831 12.2866C2.79852 13.1667 3.80132 13.7703 4.91625 13.9946C4.19205 14.1929 3.43198 14.2217 2.69485 14.0791C3.00945 15.0571 3.62157 15.9126 4.44577 16.5261C5.26997 17.1396 6.26512 17.4805 7.29234 17.501C5.54842 18.8708 3.39417 19.6138 1.17656 19.6104C0.783287 19.6099 0.390396 19.5857 0 19.5381C2.25285 20.9834 4.87354 21.7512 7.55016 21.7498Z" fill="#C1AB81" fill-opacity="1.000000" fill-rule="nonzero"/>
	</g>
</svg>
