<svg width="48" height="48" viewBox="0 0 48 48" fill="none" xmlns="http://www.w3.org/2000/svg">
<path d="M45.0425 7.89087H2.95763C1.32675 7.89087 0 9.21772 0 10.8486V24.3759C0 26.0068 1.32675 27.3335 2.95763 27.3335H45.0424C46.6732 27.3335 48 26.0068 48 24.3759V10.8486C48.0001 9.21772 46.6733 7.89087 45.0425 7.89087ZM46.5938 24.3759C46.5938 25.2313 45.8979 25.9273 45.0425 25.9273H2.95763C2.10216 25.9273 1.40625 25.2314 1.40625 24.3759V18.3153H18.7394C19.1278 18.3153 19.4426 18.0005 19.4426 17.6122C19.4426 17.2239 19.1278 16.9091 18.7394 16.9091H1.40625V10.8486C1.40625 9.99312 2.10216 9.29722 2.95763 9.29722H45.0424C45.8978 9.29722 46.5938 9.99312 46.5938 10.8486V16.9091H29.2604C28.8721 16.9091 28.5572 17.2239 28.5572 17.6122C28.5572 18.0005 28.8721 18.3153 29.2604 18.3153H46.5938V24.3759Z" fill="#1C1F21"/>
<path d="M42.7878 19.915H5.2122C4.41007 19.915 3.75757 20.5675 3.75757 21.3697V22.8727C3.75757 23.6748 4.41007 24.3273 5.2122 24.3273H42.7879C43.5901 24.3273 44.2426 23.6748 44.2426 22.8727V21.3697C44.2425 20.5676 43.59 19.915 42.7878 19.915ZM13.5273 22.9211H5.2122C5.18548 22.9211 5.16382 22.8994 5.16382 22.8728V21.3698C5.16382 21.343 5.18548 21.3214 5.2122 21.3214H13.5273V22.9211ZM23.2969 22.9211H14.9335V21.3214H23.2969V22.9211ZM33.0665 22.921H24.7031V21.3213H33.0665V22.921ZM42.8362 22.8728C42.8362 22.8995 42.8146 22.9211 42.7878 22.9211H34.4728V21.3214H42.7878C42.8146 21.3214 42.8362 21.343 42.8362 21.3698V22.8728Z" fill="#1C1F21"/>
<path d="M26.2547 16.9092H21.7454C21.357 16.9092 21.0422 17.224 21.0422 17.6123C21.0422 18.0006 21.357 18.3154 21.7454 18.3154H26.2547C26.643 18.3154 26.9578 18.0006 26.9578 17.6123C26.9578 17.224 26.643 16.9092 26.2547 16.9092Z" fill="#1C1F21"/>
<path d="M13.2027 34.3765C12.8396 34.0434 12.6791 33.8809 12.6791 33.5162C12.679 33.153 12.8394 32.9908 13.2022 32.6586C13.6157 32.2799 14.1821 31.7614 14.1821 30.7637C14.1821 30.3754 13.8672 30.0605 13.4789 30.0605C13.0906 30.0605 12.7758 30.3754 12.7758 30.7637C12.7758 31.127 12.6154 31.2891 12.2525 31.6214C11.839 32.0001 11.2727 32.5186 11.2727 33.5162C11.2727 34.5146 11.8388 35.0338 12.2521 35.4128C12.6153 35.7459 12.7758 35.9085 12.7758 36.2732C12.7758 36.6379 12.6153 36.8005 12.2522 37.1335C11.8389 37.5126 11.2728 38.0318 11.2728 39.0302C11.2728 39.4185 11.5876 39.7333 11.9759 39.7333C12.3642 39.7333 12.6791 39.4185 12.6791 39.0302C12.6791 38.6655 12.8396 38.5028 13.2027 38.1698C13.6161 37.7908 14.1821 37.2716 14.1821 36.2732C14.1821 35.2747 13.6161 34.7556 13.2027 34.3765Z" fill="#1C1F21"/>
<path d="M18.4631 34.3765C18.1 34.0434 17.9395 33.8809 17.9395 33.5162C17.9395 33.153 18.0999 32.9908 18.4627 32.6586C18.8762 32.2799 19.4425 31.7614 19.4425 30.7637C19.4425 30.3754 19.1276 30.0605 18.7393 30.0605C18.351 30.0605 18.0362 30.3754 18.0362 30.7637C18.0362 31.127 17.8758 31.2891 17.513 31.6214C17.0995 32.0001 16.5332 32.5186 16.5332 33.5162C16.5332 34.5146 17.0993 35.0338 17.5126 35.4128C17.8757 35.7459 18.0362 35.9085 18.0362 36.2732C18.0362 36.6379 17.8757 36.8005 17.5126 37.1335C17.0993 37.5126 16.5332 38.0318 16.5332 39.0302C16.5332 39.4185 16.848 39.7333 17.2363 39.7333C17.6246 39.7333 17.9395 39.4185 17.9395 39.0302C17.9395 38.6655 18.1 38.5028 18.4631 38.1698C18.8764 37.7908 19.4425 37.2715 19.4425 36.2732C19.4425 35.2748 18.8764 34.7556 18.4631 34.3765Z" fill="#1C1F21"/>
<path d="M23.7238 34.3765C23.3607 34.0434 23.2002 33.8809 23.2002 33.5162C23.2002 33.153 23.3606 32.9908 23.7234 32.6586C24.1369 32.2799 24.7032 31.7614 24.7032 30.7637C24.7032 30.3754 24.3884 30.0605 24.0001 30.0605C23.6118 30.0605 23.2969 30.3754 23.2969 30.7637C23.2969 31.127 23.1365 31.2891 22.7737 31.6214C22.3602 32.0001 21.7939 32.5186 21.7939 33.5162C21.7939 34.5146 22.36 35.0338 22.7734 35.4128C23.1364 35.7459 23.2969 35.9085 23.2969 36.2732C23.2969 36.6379 23.1364 36.8005 22.7734 37.1335C22.36 37.5126 21.7939 38.0318 21.7939 39.0302C21.7939 39.4185 22.1088 39.7333 22.4971 39.7333C22.8854 39.7333 23.2002 39.4185 23.2002 39.0302C23.2002 38.6655 23.3607 38.5028 23.7238 38.1698C24.1371 37.7908 24.7032 37.2715 24.7032 36.2732C24.7032 35.2748 24.1371 34.7556 23.7238 34.3765Z" fill="#1C1F21"/>
<path d="M36.5232 36.5425L33.6729 34.897L36.5232 33.2514C36.8595 33.0572 36.9747 32.6272 36.7805 32.2909C36.5864 31.9545 36.1562 31.8394 35.8201 32.0335L32.9698 33.6791V30.3879C32.9698 29.9996 32.655 29.6848 32.2666 29.6848C31.8783 29.6848 31.5635 29.9996 31.5635 30.3879V33.6791L28.7132 32.0335C28.377 31.8393 27.9469 31.9546 27.7528 32.2909C27.5586 32.6272 27.6738 33.0572 28.0101 33.2514L30.8604 34.897L28.0101 36.5425C27.6738 36.7367 27.5586 37.1667 27.7528 37.503C27.883 37.7286 28.1193 37.8547 28.3623 37.8547C28.4816 37.8547 28.6025 37.8243 28.7132 37.7604L31.5635 36.1148V39.406C31.5635 39.7943 31.8783 40.1091 32.2666 40.1091C32.655 40.1091 32.9698 39.7943 32.9698 39.406V36.1148L35.8201 37.7604C35.9308 37.8243 36.0517 37.8547 36.171 37.8547C36.414 37.8547 36.6503 37.7285 36.7805 37.503C36.9747 37.1667 36.8595 36.7367 36.5232 36.5425Z" fill="#1C1F21"/>
</svg>
