<svg width="48" height="48" viewBox="0 0 48 48" fill="none" xmlns="http://www.w3.org/2000/svg">
<circle cx="24" cy="24.0002" r="15.5" stroke="#1C1F21"/>
<path d="M21.914 32.0002H20V17.0002H26.1803C27.6716 17.0002 28.8477 17.435 29.7086 18.3046C30.5695 19.1742 31 20.2461 31 21.5205C31 22.7948 30.5618 23.8668 29.6855 24.7364C28.8246 25.6059 27.6562 26.0407 26.1803 26.0407H21.914V32.0002ZM25.9497 24.3766C26.8567 24.3766 27.5947 24.1142 28.1635 23.5894C28.7324 23.0497 29.0168 22.3601 29.0168 21.5205C29.0168 20.6809 28.7324 19.9987 28.1635 19.474C27.5947 18.9343 26.8567 18.6644 25.9497 18.6644H21.914V24.3766H25.9497Z" fill="#1C1F21"/>
<path d="M8.94737 8.00024C4.67117 12.0026 2 17.6904 2 24.0002C2 30.3101 4.67117 35.9979 8.94737 40.0002M39.0526 8.00024C43.3288 12.0026 46 17.6904 46 24.0002C46 30.3101 43.3288 35.9979 39.0526 40.0002" stroke="#1C1F21" stroke-linecap="round"/>
</svg>
