<svg width="48" height="48" viewBox="0 0 48 48" fill="none" xmlns="http://www.w3.org/2000/svg">
<g clip-path="url(#clip0_94_846)">
<path fill-rule="evenodd" clip-rule="evenodd" d="M14.5729 7.25C14.9871 7.25 15.3229 7.58579 15.3229 8V10.5762L19.6991 14.7309C20.8457 15.8195 20.0753 17.75 18.4942 17.75H10.547C8.95633 17.75 8.19061 15.7996 9.35638 14.7174L13.8229 10.5712V8C13.8229 7.58579 14.1587 7.25 14.5729 7.25ZM14.5671 11.927L10.3769 15.8168C10.2104 15.9714 10.3197 16.25 10.547 16.25H18.4942C18.72 16.25 18.8301 15.9742 18.6663 15.8187L14.5671 11.927Z" fill="#1C1F21"/>
<path fill-rule="evenodd" clip-rule="evenodd" d="M40 1.5H7C5.61929 1.5 4.5 2.61929 4.5 4V40C4.5 41.3807 5.61929 42.5 7 42.5H40C41.3807 42.5 42.5 41.3807 42.5 40V4C42.5 2.61929 41.3807 1.5 40 1.5ZM7 0C4.79086 0 3 1.79086 3 4V40C3 42.2091 4.79086 44 7 44H40C42.2091 44 44 42.2091 44 40V4C44 1.79086 42.2091 0 40 0H7Z" fill="#1C1F21"/>
<path fill-rule="evenodd" clip-rule="evenodd" d="M24 -0.75C24.4142 -0.75 24.75 -0.414214 24.75 0V43C24.75 43.4142 24.4142 43.75 24 43.75C23.5858 43.75 23.25 43.4142 23.25 43V0C23.25 -0.414214 23.5858 -0.75 24 -0.75Z" fill="#1C1F21"/>
<path fill-rule="evenodd" clip-rule="evenodd" d="M29 16.25C29.4142 16.25 29.75 16.5858 29.75 17L29.75 22C29.75 22.4142 29.4142 22.75 29 22.75C28.5858 22.75 28.25 22.4142 28.25 22L28.25 17C28.25 16.5858 28.5858 16.25 29 16.25Z" fill="#1C1F21"/>
<path fill-rule="evenodd" clip-rule="evenodd" d="M8 43.25C8.41421 43.25 8.75 43.5858 8.75 44L8.75 47C8.75 47.4142 8.41421 47.75 8 47.75C7.58579 47.75 7.25 47.4142 7.25 47L7.25 44C7.25 43.5858 7.58579 43.25 8 43.25Z" fill="#1C1F21"/>
<path fill-rule="evenodd" clip-rule="evenodd" d="M39 43.25C39.4142 43.25 39.75 43.5858 39.75 44L39.75 47C39.75 47.4142 39.4142 47.75 39 47.75C38.5858 47.75 38.25 47.4142 38.25 47L38.25 44C38.25 43.5858 38.5858 43.25 39 43.25Z" fill="#1C1F21"/>
<path fill-rule="evenodd" clip-rule="evenodd" d="M43.75 35C43.75 35.4142 43.4142 35.75 43 35.75L5 35.75C4.58578 35.75 4.25 35.4142 4.25 35C4.25 34.5858 4.58578 34.25 5 34.25L43 34.25C43.4142 34.25 43.75 34.5858 43.75 35Z" fill="#1C1F21"/>
<path fill-rule="evenodd" clip-rule="evenodd" d="M24.75 8C24.75 8.41421 24.4142 8.75 24 8.75L5 8.75C4.58579 8.75 4.25 8.41421 4.25 8C4.25 7.58579 4.58579 7.25 5 7.25L24 7.25C24.4142 7.25 24.75 7.58579 24.75 8Z" fill="#1C1F21"/>
<path fill-rule="evenodd" clip-rule="evenodd" d="M17.75 40C17.75 40.4142 17.4142 40.75 17 40.75H12C11.5858 40.75 11.25 40.4142 11.25 40C11.25 39.5858 11.5858 39.25 12 39.25H17C17.4142 39.25 17.75 39.5858 17.75 40Z" fill="#1C1F21"/>
<path fill-rule="evenodd" clip-rule="evenodd" d="M36.75 40C36.75 40.4142 36.4142 40.75 36 40.75H32C31.5858 40.75 31.25 40.4142 31.25 40C31.25 39.5858 31.5858 39.25 32 39.25H36C36.4142 39.25 36.75 39.5858 36.75 40Z" fill="#1C1F21"/>
</g>
<defs>
<clipPath id="clip0_94_846">
<rect width="48" height="48" fill="white"/>
</clipPath>
</defs>
</svg>
