<svg width="48" height="48" viewBox="0 0 48 48" fill="none" xmlns="http://www.w3.org/2000/svg">
<path d="M15.1515 8.375V4C15.1515 3.44772 15.5992 3 16.1515 3H21.3636C21.9159 3 22.3636 3.44772 22.3636 4V8.375L27 11.6M15.1515 8.375L10 11.6M15.1515 8.375H19.7879M10 11.6H27M10 11.6V22.35M27 11.6V26.1125M10 22.35H23.9091M10 22.35V29.875M27 26.1125H13.0909M27 26.1125V33.6375M10 29.875H23.9091M10 29.875V37.4M27 33.6375H12.0606M27 33.6375V41.1625M10 37.4V45C10 45.5523 10.4477 46 11 46H26C26.5523 46 27 45.5523 27 45V41.1625M10 37.4H23.9091M27 41.1625H13.0909" stroke="#1C1F21" stroke-width="1.5" stroke-linecap="round"/>
<path d="M30.1515 16.375V12C30.1515 11.4477 30.5992 11 31.1515 11H36.3636C36.9159 11 37.3636 11.4477 37.3636 12V16.375L42 19.6M30.1515 16.375H34.7879M30.1515 16.375L27 18.3479M42 19.6V26.1125V33.6375V41.1625V45C42 45.5523 41.5523 46 41 46H27M42 19.6H27" stroke="#1C1F21" stroke-width="1.5" stroke-linecap="round"/>
</svg>
