<svg width="48" height="48" viewBox="0 0 48 48" fill="none" xmlns="http://www.w3.org/2000/svg">
<g clip-path="url(#clip0_162_1362)">
<path d="M23.9999 30.8132C22.3689 30.8132 21.042 32.1401 21.042 33.7711C21.042 35.4021 22.3689 36.729 23.9999 36.729C25.6309 36.729 26.9578 35.4021 26.9578 33.7711C26.9578 32.1402 25.6309 30.8132 23.9999 30.8132ZM23.9999 35.3228C23.1443 35.3228 22.4482 34.6267 22.4482 33.7711C22.4482 32.9156 23.1443 32.2195 23.9999 32.2195C24.8556 32.2195 25.5516 32.9156 25.5516 33.7711C25.5516 34.6267 24.8555 35.3228 23.9999 35.3228Z" fill="#1C1F21"/>
<path d="M29.8279 26.0015C26.3964 23.4223 21.6033 23.4223 18.1718 26.0015C17.8614 26.2348 17.7989 26.6756 18.0322 26.9861C18.2655 27.2965 18.7063 27.359 19.0167 27.1257C21.9507 24.9204 26.0491 24.9204 28.983 27.1257C29.1096 27.2208 29.2579 27.2668 29.4049 27.2668C29.6184 27.2668 29.8294 27.1698 29.9675 26.9861C30.2009 26.6756 30.1384 26.2348 29.8279 26.0015Z" fill="#1C1F21"/>
<path d="M33.4319 21.1963C30.6955 19.1396 27.4339 18.0522 24.0001 18.0522C20.5663 18.0522 17.3047 19.1395 14.5683 21.1963C14.2579 21.4297 14.1954 21.8704 14.4287 22.1809C14.662 22.4913 15.1028 22.5538 15.4132 22.3205C17.9041 20.4481 20.8735 19.4585 24.0001 19.4585C27.1269 19.4585 30.0961 20.4481 32.5871 22.3205C32.7136 22.4157 32.8619 22.4616 33.0089 22.4616C33.2224 22.4616 33.4333 22.3647 33.5715 22.1809C33.8049 21.8704 33.7423 21.4297 33.4319 21.1963Z" fill="#1C1F21"/>
<path d="M37.0482 16.3749C33.2656 13.5307 28.7535 12.0273 24 12.0273C19.2465 12.0273 14.7344 13.5307 10.9518 16.3749C10.6414 16.6083 10.5789 17.0491 10.8124 17.3595C11.0458 17.6699 11.4865 17.7323 11.7969 17.4989C15.334 14.8394 19.5538 13.4336 24 13.4336C28.4462 13.4336 32.6661 14.8394 36.2031 17.4989C36.3297 17.5941 36.478 17.6401 36.6251 17.6401C36.8386 17.6401 37.0494 17.5432 37.1876 17.3595C37.421 17.0491 37.3585 16.6083 37.0482 16.3749Z" fill="#1C1F21"/>
<path d="M39.839 5.97246C35.2649 1.94655 29.3817 -0.170321 23.2751 0.0112727C17.1401 0.193804 11.3699 2.68577 7.02771 7.02808C2.6854 11.3704 0.19343 17.1404 0.0108054 23.2755C-0.170976 29.3829 1.94599 35.2655 5.9719 39.8396C6.11084 39.9975 6.3049 40.0781 6.49999 40.0781C6.66499 40.0781 6.83065 40.0204 6.96424 39.9028C7.25571 39.6462 7.28412 39.202 7.02752 38.9105C3.23796 34.6049 1.24531 29.0672 1.4164 23.3173C1.58824 17.542 3.93424 12.1103 8.02193 8.02249C12.1097 3.93471 17.5415 1.5888 23.3168 1.41696C29.067 1.24577 34.6044 3.23852 38.9099 7.02808C39.2014 7.28458 39.6457 7.25637 39.9023 6.9648C40.1589 6.67324 40.1306 6.22896 39.839 5.97246Z" fill="#1C1F21"/>
<path d="M42.0281 8.16145C41.7716 7.86998 41.3272 7.84158 41.0357 8.09817C40.7443 8.35467 40.7159 8.79905 40.9725 9.09051C44.7619 13.396 46.7547 18.9337 46.5836 24.6836C46.4117 30.459 44.0658 35.8906 39.9781 39.9784C35.8903 44.0662 30.4586 46.4121 24.6832 46.584C18.9332 46.7548 13.3956 44.7624 9.09006 40.9728C8.79868 40.7163 8.35431 40.7445 8.09771 41.0361C7.84112 41.3277 7.86943 41.7719 8.161 42.0285C12.5536 45.8946 18.1528 48.0003 23.9992 48.0003C24.2408 48.0003 24.4828 47.9968 24.725 47.9895C30.8601 47.8069 36.6302 45.315 40.9724 40.9727C45.3147 36.6305 47.8067 30.8604 47.9893 24.7254C48.1709 18.618 46.0539 12.7353 42.0281 8.16145Z" fill="#1C1F21"/>
</g>
<defs>
<clipPath id="clip0_162_1362">
<rect width="48" height="48" fill="white" transform="translate(0 0.000244141)"/>
</clipPath>
</defs>
</svg>
