<svg width="48" height="48" viewBox="0 0 48 48" fill="none" xmlns="http://www.w3.org/2000/svg">
<path d="M45.7939 8.2666H2.20613C0.989719 8.2666 0 9.25632 0 10.4727V34.5211C0 35.7376 0.989719 36.7273 2.20613 36.7273H15.0303V38.3271H11.2243C10.836 38.3271 10.5212 38.6419 10.5212 39.0302C10.5212 39.4185 10.836 39.7333 11.2243 39.7333H39.7818C40.9983 39.7333 41.9879 38.7436 41.9879 37.5272V36.7273H45.7939C47.0104 36.7273 48 35.7376 48 34.5211V10.4727C48 9.25632 47.0103 8.2666 45.7939 8.2666ZM16.4365 38.3271V36.7273H26.303V37.5272C26.303 37.8093 26.3568 38.0789 26.4537 38.3271H16.4365ZM40.5817 37.5272C40.5817 37.9683 40.2228 38.3271 39.7818 38.3271H28.5091C28.068 38.3271 27.7092 37.9682 27.7092 37.5272V28.509C27.7092 28.0679 28.0681 27.7091 28.5091 27.7091H39.7818C40.2229 27.7091 40.5817 28.068 40.5817 28.509V37.5272ZM46.5938 34.5212C46.5938 34.9623 46.2349 35.3212 45.7939 35.3212H41.9879V28.5091C41.9879 27.2926 40.9982 26.303 39.7818 26.303H28.5091C27.2926 26.303 26.303 27.2927 26.303 28.5091V35.3212H2.20613C1.76503 35.3212 1.40625 34.9623 1.40625 34.5212V10.4727C1.40625 10.0316 1.76512 9.67285 2.20613 9.67285H45.7939C46.235 9.67285 46.5938 10.0317 46.5938 10.4727V34.5212Z" fill="#1C1F21"/>
<path d="M44.2907 11.2727H3.70898C3.32067 11.2727 3.00586 11.5875 3.00586 11.9758V33.0182C3.00586 33.4065 3.32067 33.7213 3.70898 33.7213H23.9999C24.3882 33.7213 24.703 33.4065 24.703 33.0182C24.703 32.6299 24.3882 32.3151 23.9999 32.3151H4.41211V12.679H43.5875V33.0182C43.5875 33.4065 43.9023 33.7213 44.2906 33.7213C44.679 33.7213 44.9938 33.4065 44.9938 33.0182V11.9758C44.9939 11.5874 44.679 11.2727 44.2907 11.2727Z" fill="#1C1F21"/>
<path d="M33.0177 30.812H30.0117C29.6234 30.812 29.3086 31.1268 29.3086 31.5151C29.3086 31.9034 29.6234 32.2183 30.0117 32.2183H30.8116V34.5211C30.8116 34.9095 31.1264 35.2243 31.5147 35.2243C31.903 35.2243 32.2178 34.9095 32.2178 34.5211V32.2183H33.0177C33.406 32.2183 33.7208 31.9034 33.7208 31.5151C33.7208 31.1268 33.406 30.812 33.0177 30.812Z" fill="#1C1F21"/>
<path d="M38.5932 30.8862C38.246 30.7126 37.8236 30.8533 37.6498 31.2007L36.7757 32.9489L35.9015 31.2007C35.7278 30.8533 35.3054 30.7124 34.9582 30.8862C34.6108 31.0599 34.47 31.4822 34.6437 31.8295L36.1468 34.8355C36.266 35.0738 36.5094 35.2242 36.7757 35.2242C37.0421 35.2242 37.2855 35.0738 37.4046 34.8355L38.9076 31.8295C39.0812 31.4822 38.9405 31.0598 38.5932 30.8862Z" fill="#1C1F21"/>
</svg>
