<svg width="48" height="48" viewBox="0 0 48 48" fill="none" xmlns="http://www.w3.org/2000/svg">
<path d="M46.5454 3.75757H45.7939C42.7627 3.75757 39.8984 5.18229 38.0635 7.58463L24.0654 5.58494C22.5591 5.36979 21.0238 5.26066 19.5023 5.26066H5.21222C4.22306 5.26066 3.38391 5.91513 3.10481 6.81372C1.34606 7.10313 0 8.63332 0 10.4727V16.4848C0 18.3242 1.34606 19.8543 3.10472 20.1439C3.38381 21.0425 4.22297 21.697 5.21212 21.697H7.52325C7.56187 22.4172 7.74891 23.1304 8.07141 23.7754C8.61225 24.8571 8.61225 26.1487 8.07141 27.2305C7.70747 27.9583 7.51509 28.7732 7.51509 29.5868V39.7817C7.51509 42.2413 9.51619 44.2424 11.9758 44.2424C14.4354 44.2424 16.4365 42.2413 16.4365 39.7817V26.2061H17.2364C18.4529 26.2061 19.4425 25.2164 19.4425 24V21.6971H19.5023C21.0237 21.6971 22.559 21.588 24.0653 21.3728L38.0639 19.373C39.8992 21.776 42.7601 23.2001 45.7939 23.2001H46.5454C47.3475 23.2001 48 22.5476 48 21.7455V5.21219C48 4.41007 47.3475 3.75757 46.5454 3.75757ZM3.006 18.6777C2.07909 18.3797 1.40625 17.5096 1.40625 16.4849V10.4728C1.40625 9.4481 2.07909 8.57801 3.006 8.28007V18.6777ZM15.0303 39.7818C15.0303 41.466 13.66 42.8362 11.9758 42.8362C10.2916 42.8362 8.92134 41.466 8.92134 39.7818V29.5869C8.92134 28.9904 9.06234 28.393 9.32925 27.8593C10.067 26.3838 10.067 24.6221 9.32925 23.1466C9.10397 22.6959 8.96953 22.1997 8.93278 21.6971H15.0303V39.7818ZM18.0363 24C18.0363 24.4411 17.6774 24.7999 17.2364 24.7999H16.4365V21.697H18.0363V24ZM38.2247 17.9296L35.9758 18.2508V12.7274C35.9758 12.3391 35.661 12.0243 35.2727 12.0243C34.8844 12.0243 34.5696 12.3391 34.5696 12.7274V18.4517L23.8665 19.9806C22.4258 20.1864 20.9574 20.2909 19.5023 20.2909H5.21222C4.77112 20.2909 4.41234 19.932 4.41234 19.491V7.46669C4.41234 7.0256 4.77122 6.66682 5.21222 6.66682H19.5023C20.9574 6.66682 22.4258 6.77116 23.8665 6.97704L34.5696 8.50601V9.72176C34.5696 10.1101 34.8844 10.4249 35.2727 10.4249C35.661 10.4249 35.9758 10.1101 35.9758 9.72176V8.70691L38.2247 9.02819C40.4253 9.34254 42.0847 11.256 42.0847 13.4789C42.0848 15.7018 40.4253 17.6152 38.2247 17.9296ZM46.5938 21.7455C46.5938 21.7722 46.5721 21.7938 46.5454 21.7938H45.7939C43.4191 21.7938 41.1678 20.7737 39.5993 19.0249C41.8833 18.1906 43.491 15.9853 43.491 13.4788C43.491 10.9725 41.8835 8.76729 39.5997 7.93291C41.1683 6.18466 43.4213 5.16382 45.7939 5.16382H46.5454C46.5721 5.16382 46.5938 5.18547 46.5938 5.21219V21.7455Z" fill="#1C1F21"/>
<path d="M8.21784 11.2727C7.00134 11.2727 6.01172 12.2624 6.01172 13.4789C6.01172 14.6954 7.00144 15.6851 8.21784 15.6851C9.43425 15.6851 10.424 14.6953 10.424 13.4789C10.424 12.2623 9.43434 11.2727 8.21784 11.2727ZM8.21784 14.2788C7.77675 14.2788 7.41797 13.9199 7.41797 13.4789C7.41797 13.0378 7.77684 12.679 8.21784 12.679C8.65884 12.679 9.01772 13.0378 9.01772 13.4789C9.01772 13.9199 8.65894 14.2788 8.21784 14.2788Z" fill="#1C1F21"/>
</svg>
