<svg width="48" height="48" viewBox="0 0 48 48" fill="none" xmlns="http://www.w3.org/2000/svg">
<path d="M44.291 7.89087C42.4862 7.89087 40.979 9.18687 40.6495 10.8969H39.7335V10.097C39.7335 8.8805 38.7438 7.89087 37.5274 7.89087H9.72124C8.91911 7.89087 8.26661 8.54337 8.26661 9.3455V10.8969H7.35058C7.02095 9.18687 5.51392 7.89087 3.70913 7.89087C1.66397 7.89087 0 9.55475 0 11.6001C0 13.6453 1.66397 15.3092 3.70913 15.3092C5.51392 15.3092 7.02105 14.0132 7.35058 12.3032H8.26661V38.6546C8.26661 39.4567 8.91911 40.1092 9.72124 40.1092H35.2727C36.0748 40.1092 36.7274 39.4567 36.7274 38.6546V29.5881H38.2788C39.0809 29.5881 39.7334 28.9356 39.7334 28.1335V12.3032H40.6494C40.979 14.0132 42.4861 15.3092 44.2909 15.3092C46.3361 15.3092 48 13.6453 48 11.6001C48 9.55493 46.3361 7.89087 44.291 7.89087ZM3.70913 12.3032H5.90186C5.60401 13.2301 4.73382 13.903 3.70913 13.903C2.43938 13.9029 1.40625 12.8699 1.40625 11.6001C1.40625 10.3302 2.43938 9.29722 3.70913 9.29722C4.73382 9.29722 5.60392 9.97006 5.90186 10.897H3.70913C3.32082 10.897 3.00601 11.2118 3.00601 11.6001C3.00601 11.9883 3.32082 12.3032 3.70913 12.3032ZM35.3211 38.6546C35.3211 38.6812 35.2994 38.703 35.2728 38.703H9.72124C9.69452 38.703 9.67286 38.6813 9.67286 38.6546V35.6001H35.3211V38.6546ZM32.2669 32.594H35.3212V34.1938H9.67286V32.594H29.2607C29.6491 32.594 29.9639 32.2792 29.9639 31.8909C29.9639 31.5026 29.6491 31.1878 29.2607 31.1878H9.67286V9.3455C9.67286 9.31878 9.69452 9.29712 9.72124 9.29712H35.4712C35.3744 9.54518 35.3211 9.815 35.3211 10.097V31.1878H32.2669C31.8786 31.1878 31.5638 31.5026 31.5638 31.8909C31.5638 32.2792 31.8786 32.594 32.2669 32.594ZM38.3272 28.1334C38.3272 28.1601 38.3056 28.1818 38.2789 28.1818H36.7275V12.3032H38.3272V28.1334ZM38.3272 10.8968H36.7275V10.0969C36.7274 9.6559 37.0863 9.29703 37.5274 9.29703C37.9684 9.29703 38.3272 9.6559 38.3272 10.0969V10.8968ZM44.291 13.9029C43.2663 13.9029 42.3962 13.23 42.0982 12.3031H44.291C44.6793 12.3031 44.9941 11.9883 44.9941 11.6C44.9941 11.2117 44.6793 10.8969 44.291 10.8969H42.0982C42.3962 9.96997 43.2664 9.29712 44.291 9.29712C45.5608 9.29712 46.5938 10.3302 46.5938 11.6C46.5938 12.8698 45.5607 13.9029 44.291 13.9029Z" fill="#1C1F21"/>
</svg>
