<svg width="48" height="48" viewBox="0 0 48 48" fill="none" xmlns="http://www.w3.org/2000/svg">
<g clip-path="url(#clip0_94_559)">
<path d="M39.839 5.97222C35.265 1.94631 29.3825 -0.170565 23.2751 0.0110286C17.1401 0.19356 11.3699 2.68553 7.02771 7.02784C2.6854 11.3702 0.19343 17.1402 0.0108054 23.2753C-0.170976 29.3826 1.94599 35.2652 5.9719 39.8393C6.11084 39.9973 6.3049 40.0779 6.49999 40.0779C6.66499 40.0779 6.83065 40.0202 6.96424 39.9026C7.25571 39.646 7.28412 39.2017 7.02752 38.9102C3.23796 34.6047 1.24531 29.067 1.4164 23.3171C1.58824 17.5417 3.93424 12.11 8.02193 8.02225C12.1097 3.93447 17.5415 1.58856 23.3168 1.41672C29.0667 1.24553 34.6044 3.23828 38.9099 7.02784C39.2014 7.28434 39.6458 7.25612 39.9023 6.96456C40.1589 6.67309 40.1306 6.22872 39.839 5.97222Z" fill="#1C1F21"/>
<path d="M42.0276 8.16096C41.7711 7.8695 41.3267 7.84109 41.0353 8.09768C40.7438 8.35418 40.7154 8.79856 40.972 9.09003C44.7615 13.3955 46.7542 18.9332 46.5831 24.6831C46.4113 30.4585 44.0654 35.8902 39.9776 39.9779C35.8898 44.0657 30.4581 46.4116 24.6827 46.5835C18.9327 46.7543 13.3951 44.7619 9.08957 40.9723C8.79819 40.7158 8.35382 40.7441 8.09723 41.0356C7.84063 41.3271 7.86895 41.7715 8.16051 42.028C12.5531 45.8941 18.1523 47.9998 23.9987 47.9998C24.2403 47.9998 24.4823 47.9963 24.7245 47.9891C30.8596 47.8064 36.6297 45.3145 40.9719 40.9722C45.3142 36.63 47.8062 30.8599 47.9888 24.7249C48.1704 18.6175 46.0534 12.7348 42.0276 8.16096Z" fill="#1C1F21"/>
<path d="M33.6513 30.5491C33.4143 28.2929 32.2415 25.78 30.5142 23.8273C28.5906 21.6526 26.2781 20.4548 24.0028 20.4548C19.1663 20.4548 14.8448 25.8811 14.3544 30.549C14.1608 32.3919 14.581 33.9021 15.6034 35.0375C16.5008 36.0342 17.8693 36.7315 19.6705 37.1099C21.2392 37.4394 22.8944 37.4775 24.0029 37.4775C26.6655 37.4775 30.433 37.2246 32.4023 35.0375C33.4247 33.9021 33.845 32.392 33.6513 30.5491ZM31.3572 34.0966C29.7634 35.8667 26.3965 36.0713 24.0027 36.0713C21.6089 36.0713 18.2421 35.8666 16.6482 34.0966C15.8934 33.2583 15.6005 32.1459 15.7528 30.696C15.9604 28.72 17.0041 26.5006 18.5446 24.7589C20.1976 22.8902 22.136 21.861 24.0027 21.861C25.8695 21.861 27.8078 22.8902 29.4608 24.7589C31.0014 26.5006 32.0451 28.7199 32.2526 30.696C32.405 32.1459 32.112 33.2583 31.3572 34.0966Z" fill="#1C1F21"/>
<path d="M22.5847 13.3838C22.1568 12.3054 21.3735 11.439 20.3792 10.9441C19.359 10.4363 18.2406 10.3777 17.2301 10.7786C16.2196 11.1798 15.4459 11.9895 15.0518 13.0587C14.6676 14.1008 14.6918 15.2686 15.1199 16.3469C16.0444 18.6761 17.9061 20.1546 19.7002 20.1543C20.0948 20.1543 20.4866 20.0827 20.8639 19.9328C22.9569 19.102 23.7128 16.2253 22.5847 13.3838ZM20.345 18.626C19.0302 19.1478 17.2361 17.8665 16.4269 15.8282C16.1269 15.0724 16.1072 14.2615 16.3713 13.5452C16.6253 12.8558 17.1146 12.3375 17.7489 12.0858C18.0226 11.9771 18.3106 11.9231 18.6025 11.9231C18.9872 11.9231 19.3786 12.0169 19.7524 12.2031C20.4361 12.5433 20.9777 13.1469 21.2777 13.9027C22.0868 15.9411 21.6597 18.1041 20.345 18.626Z" fill="#1C1F21"/>
<path d="M39.373 20.7889C39.3352 19.8144 38.9193 18.95 38.2018 18.355C36.7438 17.146 34.484 17.457 33.1642 19.0483C31.5107 21.0425 31.3769 23.5676 32.8596 24.7971C33.3656 25.2168 33.9956 25.4316 34.6912 25.4316C35.0185 25.4317 35.3606 25.384 35.711 25.2877C36.7169 25.011 37.6906 24.3526 38.4526 23.4338C39.0828 22.6739 39.4097 21.7345 39.373 20.7889ZM37.3702 22.5361C36.7905 23.2352 36.0689 23.7309 35.3382 23.9317C34.6991 24.1075 34.1378 24.0303 33.7572 23.7147C32.9107 23.0127 33.1349 21.2869 34.2468 19.9461C35.0715 18.9516 36.4431 18.7234 37.3042 19.4375C37.7101 19.774 37.9458 20.2734 37.9678 20.8434C37.9911 21.4422 37.7787 22.0434 37.3702 22.5361Z" fill="#1C1F21"/>
<path d="M30.7748 10.7788C28.7168 9.96197 26.3147 11.1305 25.4202 13.3839C24.2922 16.2256 25.0481 19.1023 27.1411 19.933C27.5186 20.0829 27.91 20.1545 28.3048 20.1545C30.0988 20.1545 31.9606 18.6761 32.8851 16.3471C33.7795 14.0935 32.8328 11.5958 30.7748 10.7788ZM31.5781 15.8281C30.8914 17.5581 29.4953 18.7427 28.2848 18.7425C28.069 18.7425 27.8589 18.7048 27.66 18.6259C26.3452 18.1041 25.9181 15.9411 26.7273 13.9027C27.3357 12.3699 28.9184 11.5549 30.256 12.0858C31.5934 12.6166 32.1864 14.2955 31.5781 15.8281Z" fill="#1C1F21"/>
<path d="M16.1558 22.0859C16.0702 21.0461 15.6033 19.9674 14.8414 19.0486C14.2111 18.2886 13.3485 17.7935 12.4124 17.6545C11.4479 17.5113 10.5213 17.7601 9.80381 18.3551C8.34581 19.5642 8.23331 21.8425 9.55303 23.4339C10.3149 24.3529 11.2886 25.0112 12.2947 25.2878C12.6451 25.3842 12.987 25.4318 13.3146 25.4318C14.0099 25.4318 14.6401 25.217 15.1461 24.7973C15.8903 24.1801 16.249 23.2172 16.1558 22.0859ZM14.2484 23.7148C13.8679 24.0305 13.3062 24.1074 12.6675 23.9318C11.9368 23.7309 11.2151 23.2353 10.6355 22.5362C9.81075 21.5418 9.84037 20.1517 10.7015 19.4376C11.0302 19.1648 11.4433 19.0217 11.8883 19.0217C11.9927 19.0217 12.0988 19.0296 12.2059 19.0454C12.7987 19.1334 13.3502 19.4533 13.7587 19.9461C14.3384 20.6452 14.6919 21.4461 14.7542 22.2012C14.8087 22.8617 14.629 23.3992 14.2484 23.7148Z" fill="#1C1F21"/>
</g>
<defs>
<clipPath id="clip0_94_559">
<rect width="48" height="48" fill="white"/>
</clipPath>
</defs>
</svg>
