<?xml version="1.0" encoding="UTF-8"?> <svg xmlns="http://www.w3.org/2000/svg" width="33" height="33" viewBox="0 0 33 33" fill="none"><path d="M24.2832 13.6035H31.521V22.6849" stroke="#9D875C"></path><path d="M28.4492 19.2024H31.5219" stroke="#9D875C"></path><path d="M26.333 4.52197L25.5137 9.98448H31.7273L30.9762 4.52197H26.333Z" stroke="#9D875C"></path><path d="M28.5859 10.0527V13.6034" stroke="#9D875C"></path><path d="M1 27.9424H31.9997" stroke="#9D875C"></path><path d="M1.70508 16.8808C1.70508 15.9502 2.45948 15.1958 3.39008 15.1958H24.4207C25.3513 15.1958 26.1057 15.9502 26.1057 16.8808V23.2089H1.70508V16.8808Z" stroke="#9D875C"></path><path d="M2.22852 23.5723V25.8938H25.5807V23.5723" stroke="#9D875C"></path><path d="M24.2829 14.8327V7.32172C24.2829 6.11498 23.3047 5.13672 22.0979 5.13672H5.71039C4.50365 5.13672 3.52539 6.11498 3.52539 7.32172V14.8327" stroke="#9D875C"></path><path d="M12.2656 14.8324V12.2377C12.2656 11.031 11.2874 10.0527 10.0806 10.0527H7.6225C6.41576 10.0527 5.4375 11.031 5.4375 12.2377V14.8324" stroke="#9D875C"></path><path d="M21.6895 14.8324V12.2377C21.6895 11.031 20.7112 10.0527 19.5045 10.0527H17.0463C15.8396 10.0527 14.8613 11.031 14.8613 12.2377V14.8324" stroke="#9D875C"></path><path d="M2.91211 25.9624V27.8743" stroke="#9D875C"></path><path d="M22.6445 25.9624V27.8743" stroke="#9D875C"></path><path d="M5.16602 25.9624V27.8743" stroke="#9D875C"></path><path d="M24.8984 25.9624V27.8743" stroke="#9D875C"></path></svg> 