<!-- Generated by IcoMoon.io -->
<svg version="1.1" xmlns="http://www.w3.org/2000/svg" width="32" height="32" viewBox="0 0 32 32">
<title>phone</title>
<path d="M23.45 20.93c-0.543-0.545-1.295-0.882-2.125-0.882s-1.582 0.337-2.125 0.882l-1.45 1.45c-1.7-1.088-3.176-2.282-4.509-3.619l-0.001-0.001c-1.335-1.335-2.528-2.812-3.557-4.405l-0.063-0.105 1.45-1.45c0.545-0.543 0.882-1.295 0.882-2.125s-0.337-1.582-0.882-2.125l-2.83-2.82c-0.532-0.543-1.274-0.88-2.093-0.88-0.006 0-0.012 0-0.017 0h0.001c-0.002 0-0.005 0-0.007 0-0.829 0-1.58 0.336-2.123 0.88l-0 0-1.36 1.35c-1.057 1.134-1.706 2.66-1.706 4.338 0 0.322 0.024 0.638 0.070 0.947l-0.004-0.035c0.32 3.75 2.78 8.26 6.57 12.060s8.35 6.25 12.1 6.61c0.125 0.007 0.272 0.011 0.42 0.011s0.295-0.004 0.44-0.012l-0.020 0.001c0.076 0.003 0.165 0.005 0.255 0.005 1.609 0 3.072-0.626 4.159-1.648l-0.003 0.003 1.35-1.36c0.544-0.543 0.88-1.294 0.88-2.123 0-0.003 0-0.005 0-0.008v0c0-0.005 0-0.011 0-0.017 0-0.82-0.337-1.561-0.88-2.093l-0-0zM24.86 26.59l-1.36 1.35c-0.787 0.659-1.809 1.059-2.926 1.059-0.259 0-0.513-0.022-0.761-0.063l0.027 0.004c-3.25-0.28-7.39-2.58-10.81-6s-5.72-7.53-6.030-10.78c-0.039-0.224-0.062-0.482-0.062-0.746 0-1.113 0.401-2.132 1.067-2.921l-0.006 0.007 1.41-1.36c0.181-0.179 0.429-0.29 0.704-0.29 0.002 0 0.004 0 0.006 0h-0c0.002 0 0.004-0 0.006-0 0.275 0 0.524 0.111 0.704 0.29l-0-0 2.83 2.86c0.18 0.181 0.291 0.43 0.291 0.705s-0.111 0.524-0.291 0.705l-2 2c-0.182 0.181-0.295 0.432-0.295 0.709 0 0.185 0.050 0.357 0.137 0.506l-0.003-0.005c1.258 2.121 2.691 3.952 4.329 5.579l0.001 0.001c1.628 1.639 3.459 3.072 5.454 4.26l0.126 0.070c0.144 0.085 0.317 0.135 0.501 0.135 0.277 0 0.528-0.113 0.709-0.295l2-2c0.181-0.18 0.43-0.291 0.705-0.291s0.524 0.111 0.705 0.291l2.83 2.83c0.179 0.181 0.29 0.43 0.29 0.704 0 0.002 0 0.004-0 0.006v-0c-0.007 0.266-0.116 0.505-0.29 0.68l0-0zM26.6 5.39c-2.702-2.712-6.44-4.39-10.57-4.39-0.011 0-0.021 0-0.032 0h0.002c-0.552 0-1 0.448-1 1s0.448 1 1 1v0c0 0 0 0 0 0 7.18 0 13 5.82 13 13 0 0.039-0 0.077-0 0.116l0-0.006c0 0.552 0.448 1 1 1v0 0c0.552 0 1-0.448 1-1v0c0-0.043 0.001-0.093 0.001-0.143 0-4.134-1.682-7.875-4.4-10.576l-0.001-0.001z"></path>
<path d="M20.91 11.11c1.093 1.087 1.77 2.592 1.77 4.255 0 0.019-0 0.038-0 0.057l0-0.003c0 0.552 0.448 1 1 1v0 0c0.552 0 1-0.448 1-1v0c0-0.030 0.001-0.065 0.001-0.1 0-4.418-3.582-8-8-8-0 0-0 0-0.001 0h0c-0.552 0-1 0.448-1 1s0.448 1 1 1v0c1.657 0.013 3.151 0.695 4.229 1.789l0.001 0.001z"></path>
</svg>
