<!-- Generated by IcoMoon.io -->
<svg version="1.1" xmlns="http://www.w3.org/2000/svg" width="40" height="32" viewBox="0 0 40 32">
<title>quote</title>
<path d="M2.938 30.159c2.294 2.455 6.177 2.455 8.648 0 2.294-2.455 2.294-6.137-0.177-8.416-1.235-1.227-2.647-1.578-4.059-1.929-2.824-0.526-7.059-10.345 6.53-19.288l-0.353-0.526c-7.236 3.682-8.824 7.189-10.766 10.345-3.883 7.189-3.53 16.307 0.176 19.814zM29.058 30.159c2.294 2.455 6.177 2.455 8.648 0 2.294-2.455 2.294-6.137-0.176-8.416-1.235-1.227-2.647-1.578-4.059-1.929-2.824-0.526-7.059-10.345 6.53-19.288l-0.353-0.526c-7.236 3.682-8.824 7.189-10.766 10.345-3.883 7.189-3.53 16.307 0.177 19.814z"></path>
</svg>
