<!-- Generated by IcoMoon.io -->
<svg version="1.1" xmlns="http://www.w3.org/2000/svg" width="32" height="32" viewBox="0 0 32 32">
<title>s-midium</title>
<path d="M18.050 15.77c0 5.028-4.041 9.104-9.025 9.104s-9.025-4.077-9.025-9.104c0-5.027 4.041-9.103 9.025-9.103s9.025 4.076 9.025 9.103z"></path>
<path d="M27.951 15.771c0 4.732-2.020 8.57-4.513 8.57s-4.513-3.838-4.513-8.57 2.020-8.57 4.512-8.57c2.492 0 4.513 3.837 4.513 8.57h0z"></path>
<path d="M32 15.77c0 4.239-0.71 7.678-1.587 7.678s-1.587-3.438-1.587-7.678c0-4.24 0.71-7.678 1.587-7.678s1.587 3.438 1.587 7.678z"></path>
</svg>
