<svg width="73.000000" height="46.000000" viewBox="0 0 73 46" fill="none" xmlns="http://www.w3.org/2000/svg" xmlns:xlink="http://www.w3.org/1999/xlink">
	<desc>
			Created with Pixso.
	</desc>
	<defs/>
	<rect id="Компоненты 2" width="72.915680" height="46.659786" transform="translate(-0.500000 -0.704956)" fill="#FFFFFF" fill-opacity="0"/>
	<path id="Линия 1 (Граница)" d="M0 22.95C-0.29 22.95 -0.5 23.17 -0.5 23.45C-0.5 23.73 -0.29 23.95 0 23.95L69.08 23.95C69.36 23.95 69.58 23.73 69.58 23.45C69.58 23.17 69.36 22.95 69.08 22.95L0 22.95Z" fill="#000000" fill-opacity="1.000000" fill-rule="evenodd"/>
	<path id="Линия 2 (Граница)" d="M45.18 -0.38C44.97 -0.57 44.66 -0.54 44.48 -0.33C44.3 -0.12 44.32 0.19 44.53 0.37L71.38 23.58C71.59 23.77 71.9 23.75 72.08 23.53C72.27 23.32 72.24 23.01 72.03 22.83L45.18 -0.38Z" fill="#000000" fill-opacity="1.000000" fill-rule="evenodd"/>
	<path id="Линия 2 (Граница)" d="M42.11 44.85C41.88 45.02 41.84 45.33 42.01 45.55C42.18 45.78 42.49 45.82 42.71 45.65L71.54 23.61C71.77 23.44 71.81 23.13 71.64 22.91C71.47 22.69 71.16 22.65 70.94 22.82L42.11 44.85Z" fill="#000000" fill-opacity="1.000000" fill-rule="evenodd"/>
</svg>
