<svg width="70" height="120" fill="none" xmlns="http://www.w3.org/2000/svg"><path d="M29.643 18.5l.459-.889-.459.889zm-26 39.5l-.962.271.962-.271zm62.887 57.922a1 1 0 00.536-1.308l-3.478-8.301a.999.999 0 10-1.844.772l3.09 7.379-7.378 3.091a1 1 0 00.773 1.845l8.3-3.478zM69.496.011C57.067 1.862 51.178 13.864 48.358 25.642 45.515 37.522 45.643 49.757 45.643 53h2c0-3.257-.121-15.272 2.66-26.892C53.11 14.386 58.72 3.638 69.79 1.989L69.496.011zM45.643 53c0 4 .854 6.998 2.155 8.926 1.293 1.917 3.18 2.93 5.06 2.34 1.815-.567 3.073-2.474 3.535-5.117.469-2.685.178-6.356-1.297-10.955l-1.905.611c1.412 4.402 1.628 7.731 1.232 10-.404 2.309-1.382 3.309-2.163 3.553-.716.224-1.788-.045-2.804-1.55-1.007-1.493-1.813-4.058-1.813-7.808h-2zm9.453-4.806C52.17 39.078 48.333 32.662 43.998 27.9c-4.335-4.761-9.128-7.826-13.896-10.288l-.917 1.778c4.646 2.398 9.216 5.333 13.334 9.857 4.117 4.522 7.822 10.676 10.672 19.56l1.904-.611zM30.102 17.611C22.01 13.435 12.5 14.444 6.339 21.267c-6.14 6.8-8.704 19.09-3.658 37.004l1.925-.542C-.348 40.143 2.337 28.684 7.823 22.608c5.464-6.052 13.953-7.043 21.362-3.22l.917-1.777zM2.68 58.271c4.085 14.501 15.53 27.123 28.03 36.977 12.52 9.869 26.229 17.063 35.054 20.677l.757-1.85c-8.675-3.553-22.217-10.658-34.572-20.398C19.575 83.922 8.521 71.627 4.606 57.73l-1.925.542z" fill="#EBE691"/></svg>