<svg id="Capa_1" data-name="Capa 1" xmlns="http://www.w3.org/2000/svg" viewBox="0 0 400 400"><defs><style>.cls-1{fill:#717171;}</style></defs><title>info</title><path class="cls-1" d="M200,0C89.72,0,0,89.72,0,200S89.72,400,200,400s200-89.72,200-200S310.27,0,200,0Zm0,373.77c-95.81,0-173.76-77.95-173.76-173.77S104.18,26.23,200,26.23s173.78,78,173.78,173.77S295.82,373.77,200,373.77Z"/><path class="cls-1" d="M196.29,126a17.49,17.49,0,1,0-17.49-17.49A17.49,17.49,0,0,0,196.29,126Z"/><path class="cls-1" d="M224.09,279.59h-11v-125A13.11,13.11,0,0,0,200,141.45h-24.1a13.12,13.12,0,0,0,0,26.23h11V279.59h-11a13.12,13.12,0,0,0,0,26.23h48.18a13.12,13.12,0,1,0,0-26.23Z"/></svg>