<svg width="868" height="658" viewBox="0 0 868 658" fill="none" xmlns="http://www.w3.org/2000/svg">
<path fill-rule="evenodd" clip-rule="evenodd" d="M496.712 237.601C509.598 221.616 515.845 201.759 512.408 177.8C501.769 103.684 448.001 65.8116 379.531 50.9352C279.553 29.2154 147.877 57.2844 79.4383 90.231C76.1949 91.7881 74.9536 95.5781 76.6497 98.6784C78.3433 101.794 82.3446 103.059 85.5879 101.502C152.011 69.5208 279.783 42.1474 376.815 63.2204C439.684 76.8819 489.521 111.217 499.282 179.291C502.203 199.55 496.871 216.29 486.013 229.833C476.479 223.054 466.874 216.618 457.212 210.543C430.537 193.778 354.008 162.872 294.546 160.366C251.892 158.579 218.05 171.366 213.028 210.311C210.241 231.959 221.927 249.805 242.926 262.93C271.785 280.992 318.938 290.024 365.797 288.028C404.811 286.372 443.549 277.116 471.32 259.647C477.415 255.795 483.009 251.574 487.973 246.947C618.374 343.317 729.589 501.44 763.426 650.999C764.21 654.403 767.722 656.636 771.299 655.954C774.88 655.287 777.145 651.964 776.377 648.564C741.975 496.566 629.185 335.861 496.712 237.601ZM477.163 239.129C468.188 232.777 459.147 226.737 450.055 221.026C424.487 204.969 351.175 175.363 294.203 172.964C259.24 171.488 230.283 180.15 226.165 212.069C224.014 228.834 233.803 242.261 250.05 252.442C267.935 263.623 293.402 270.869 321.281 273.982C363.608 278.707 411.493 273.852 447.368 257.836C458.736 252.767 468.878 246.555 477.163 239.129Z" fill="#222220"/>
<path fill-rule="evenodd" clip-rule="evenodd" d="M566.624 505.693C641.644 530.493 716.095 591.341 764.745 651.891C766.985 654.674 771.146 655.241 774.029 653.159C776.917 651.083 777.455 647.134 775.217 644.346C725.051 581.903 648.108 519.365 570.773 493.799C567.31 492.654 563.563 494.386 562.419 497.678C561.274 500.949 563.166 504.549 566.624 505.693Z" fill="black"/>
<path fill-rule="evenodd" clip-rule="evenodd" d="M776.725 643.766C752.922 585.011 761.426 502.068 787.22 444.729C788.651 441.548 787.089 437.81 783.721 436.405C780.356 434.983 776.472 436.406 775.037 439.585C748.022 499.656 739.449 586.56 764.383 648.115C765.7 651.379 769.551 653.055 772.956 651.864C776.364 650.653 778.053 647.032 776.725 643.766Z" fill="black"/>
</svg>
