<svg width="81.999878" height="69.003906" viewBox="0 0 81.9999 69.0039" fill="none" xmlns="http://www.w3.org/2000/svg" xmlns:xlink="http://www.w3.org/1999/xlink">
	<desc>
			Created with Pixso.
	</desc>
	<defs/>
	<path id="Vector" d="M16.1078 15.603L14.7003 16.4287M10.4398 18.9275L1 24.4653L7.79089 34.8174L40.9987 15.8083L74.2091 34.8157L81 24.4636C81 24.4636 41.0706 1.04663 40.9987 1C40.9624 1.02417 30.6083 7.09766 20.1831 13.2124M69.1338 51.1763L69.1338 31.9109M12.8663 31.9109L12.8663 62.4646C12.8662 63.1199 12.9952 63.769 13.2458 64.3745C13.4966 64.9802 13.8641 65.5303 14.3275 65.9939C14.7909 66.4573 15.3411 66.825 15.9464 67.0757C16.5519 67.3264 17.2008 67.4556 17.8561 67.4553L20.7281 67.4553C22.0968 67.4553 23.4093 66.9116 24.377 65.9436C25.3447 64.9758 25.8884 63.6628 25.8884 62.2939L25.8884 43.4736C25.8884 42.2605 26.3701 41.0972 27.2277 40.2393C28.0853 39.3816 29.2484 38.8997 30.4612 38.8997L51.5388 38.8997C52.7516 38.8997 53.9148 39.3816 54.7723 40.2393C55.6299 41.0972 56.1117 42.2605 56.1117 43.4736L56.1117 55.7336M75.4351 56.2874C75.5947 55.6094 75.5958 54.9038 75.4384 54.2253C75.1855 53.1479 74.5454 52.2009 73.6399 51.5647C72.7344 50.9285 71.6266 50.6475 70.5273 50.7751C69.4282 50.9026 68.4142 51.4299 67.6783 52.2566C66.9425 53.0833 66.5363 54.1516 66.5367 55.2585C66.5367 55.4187 66.5471 55.7336 66.5471 55.7336L50.005 55.7336C50.005 55.7336 50.0198 55.3381 50.0146 55.1357C49.9523 52.8054 48.0491 50.8613 45.7212 50.7539C44.8469 50.7124 43.9794 50.9263 43.2246 51.3696C42.4698 51.813 41.8605 52.4666 41.4708 53.2505C41.0812 54.0344 40.9281 54.9148 41.0303 55.7842C41.1324 56.6538 41.4855 57.4746 42.0463 58.1467C42.3281 58.4961 42.481 58.9321 42.4789 59.3811C42.4768 59.8298 42.3201 60.2644 42.035 60.6111C41.5914 61.1479 41.2775 61.7798 41.1178 62.4578C40.9581 63.1355 40.957 63.8411 41.1146 64.5195C41.3676 65.5972 42.0077 66.5439 42.9132 67.1802C43.8187 67.8164 44.9265 68.0974 46.0256 67.97C47.1249 67.8423 48.1389 67.3149 48.8748 66.4883C49.6105 65.6616 50.0168 64.5933 50.0164 63.4863C50.0164 63.3264 50.005 63.0115 50.005 63.0115L66.5471 63.0115C66.5471 63.0115 66.5333 63.4067 66.5385 63.6094C66.5999 65.9385 68.5013 67.8821 70.8275 67.991C71.702 68.033 72.5698 67.8196 73.3251 67.3765C74.0803 66.9333 74.6902 66.28 75.0803 65.4961C75.4705 64.7122 75.624 63.8315 75.5221 62.9617C75.4203 62.092 75.0674 61.2708 74.5067 60.5981C74.2249 60.2488 74.0721 59.813 74.0742 59.364C74.0762 58.915 74.233 58.4807 74.5179 58.1338C74.9615 57.5972 75.2754 56.9651 75.4351 56.2874Z" stroke="#000000" stroke-opacity="1.000000" stroke-width="2.000000" stroke-linejoin="round"/>
</svg>
